<svg id="Layer_1" data-name="Layer 1" xmlns="http://www.w3.org/2000/svg" viewBox="0 0 36.52 23.1"><defs><style>.cls-1{fill:#d7c5bc;}.cls-2{fill:#4c4851;}</style></defs><circle class="cls-1" cx="19" cy="11.55" r="11.55"/><path class="cls-2" d="M36.92,13.51c-.09-.23-.49-.29-.73-.17a.68.68,0,0,0-.23.21l-.49.5a5,5,0,0,1-1.35.89,5.64,5.64,0,0,1-3,.37,17.69,17.69,0,0,1-2.22-.46c-.1,0-.28-.08-.53-.13a4.45,4.45,0,0,0-1.39,0,4.26,4.26,0,0,0-2.46,1.69,7,7,0,0,0-.87,1.25c-.07-1.23-.09-2.18-.09-2.68s0-1.12,0-1.32v-.19c0-.24,0-.36,0-.41a1.48,1.48,0,0,1,.53-.87c.14-.11.26-.17.27-.28s-.15-.24-.18-.26a.83.83,0,0,0-1,.23s0,.1-.11.23c-.16.35-.27.61-.29.66a4.24,4.24,0,0,1-.68,1.1,3.74,3.74,0,0,1-.57.56,3.93,3.93,0,0,1-.46.34,1.41,1.41,0,0,1-.37.22.68.68,0,0,1-.54-.08.63.63,0,0,1-.19-.33,7,7,0,0,1-.19-1.77.55.55,0,0,0-.08-.4c-.19-.26-.65-.18-.67-.18a.54.54,0,0,0-.32.16.35.35,0,0,0-.07.15c0,.11,0,.19.09.33a1,1,0,0,1,.12.5,1,1,0,0,1-.12.33,2.9,2.9,0,0,1-.2.32,22.38,22.38,0,0,1-1.69,2.07,14.3,14.3,0,0,1-2.08,1.66,4.43,4.43,0,0,1-.8.4,1.31,1.31,0,0,1-.52.15,1.28,1.28,0,0,1-.88-.33,1.55,1.55,0,0,1-.45-1,2.66,2.66,0,0,1,.57-1.86,3.07,3.07,0,0,1,.74-.66.82.82,0,0,1,.39-.14c.14,0,.39,0,.45.19s0,.19.07.31a.17.17,0,0,0,.06.06.22.22,0,0,0,.22-.1.33.33,0,0,0,0-.36c-.54-.28-1.32-.66-2.29-1.07a10.4,10.4,0,0,0-2.4-.8,7,7,0,0,0-3,.16,8.66,8.66,0,0,0-4.64,3.13,10.91,10.91,0,0,0-1.79,4.3,3.42,3.42,0,0,0-.07.66,3.57,3.57,0,0,0,.34,1.53s.05.09.08.17a3.38,3.38,0,0,0,.13.42L1,23a.4.4,0,0,0,.44,0,.45.45,0,0,0,.16-.5.66.66,0,0,0-.29-.32c-.11-.07-.15-.05-.23-.12a.75.75,0,0,1-.18-.33,3.65,3.65,0,0,1-.17-.49A4,4,0,0,1,.9,19.61a10.8,10.8,0,0,1,.49-1.56A8.7,8.7,0,0,1,3,15.32a8.31,8.31,0,0,1,2.5-1.84A7,7,0,0,1,9,12.66a10,10,0,0,1,3.41.93c.47.19.86.38,1.13.51a3.36,3.36,0,0,0-1.46.94,3.31,3.31,0,0,0-.73,1.23,2,2,0,0,0,0,1.81,1.7,1.7,0,0,0,1.24.59,2.57,2.57,0,0,0,1.23-.17,4.43,4.43,0,0,0,1.34-.73,13.27,13.27,0,0,0,2.63-2.3A13.06,13.06,0,0,0,19,13.76a4,4,0,0,0,0,.8c0,.46.05.71.25.88a.86.86,0,0,0,.64.14,2,2,0,0,0,.92-.29,5,5,0,0,0,1.17-.91,7.62,7.62,0,0,0,1-1.25c0,.95,0,1.92,0,2.9s0,1.9.06,2.83a15.13,15.13,0,0,0-1.18,2.49c-.2.54-.31.93-.44,1.38A7.32,7.32,0,0,0,20.94,25a3.06,3.06,0,0,0,.13.84,1.67,1.67,0,0,0,.56.94,1.46,1.46,0,0,0,1.09.23,1.72,1.72,0,0,0,1.1-1,2.83,2.83,0,0,0,.32-1.31A28.12,28.12,0,0,0,24,21c-.14-1.11-.26-2.06-.36-2.82a7.51,7.51,0,0,1,.77-1.28,5.83,5.83,0,0,1,1.43-1.48,3.16,3.16,0,0,1,.75-.39,2.78,2.78,0,0,1,1-.16,3.31,3.31,0,0,1,.84.13,21.88,21.88,0,0,0,2.39.52,6.37,6.37,0,0,0,2.18,0A5.31,5.31,0,0,0,34.56,15l1.34-.7.29-.13c.33-.12.44-.07.57-.18A.46.46,0,0,0,36.92,13.51Zm-13.7,8.37a17.08,17.08,0,0,1-.15,3.4,2.12,2.12,0,0,1-.63,1.23.39.39,0,0,1-.29.11c-.29,0-.49-.35-.57-.49a2.06,2.06,0,0,1-.26-1,5.7,5.7,0,0,1,.17-1.65,18.76,18.76,0,0,1,.72-2.44A19.89,19.89,0,0,1,23,19.26C23.08,20,23.16,20.88,23.22,21.88Z" transform="translate(-0.42 -7.13)"/></svg>